name D:\school\WTK\thesis\model\3dpredictsim\Results\Final\Fal_s1_bCst_PF_Song2011_ls150_MT_nl_Song2011_MTP_Mu0_ig1_v8.mot
datacolumns 128
datarows 4
range 0.00000000 0.04226714
endheader
time	pelvis_tilt	pelvis_list	pelvis_rotation	pelvis_tx	pelvis_ty	pelvis_tz	hip_flexion_l	hip_adduction_l	hip_rotation_l	hip_flexion_r	hip_adduction_r	hip_rotation_r	knee_angle_l	knee_angle_r	ankle_angle_l	ankle_angle_r	subtalar_angle_l	subtalar_angle_r	tmt_angle_l	tmt_angle_r	mtp_angle_l	mtp_angle_r	lumbar_extension	lumbar_bending	lumbar_rotation	arm_flex_l	arm_add_l	arm_rot_l	arm_flex_r	arm_add_r	arm_rot_r	elbow_flex_l	elbow_flex_r	pro_sup_l	pro_sup_r	glut_med1_l/activation	glut_med2_l/activation	glut_med3_l/activation	glut_min1_l/activation	glut_min2_l/activation	glut_min3_l/activation	semimem_l/activation	semiten_l/activation	bifemlh_l/activation	bifemsh_l/activation	sar_l/activation	add_long_l/activation	add_brev_l/activation	add_mag1_l/activation	add_mag2_l/activation	add_mag3_l/activation	tfl_l/activation	pect_l/activation	grac_l/activation	glut_max1_l/activation	glut_max2_l/activation	glut_max3_l/activation	iliacus_l/activation	psoas_l/activation	quad_fem_l/activation	gem_l/activation	peri_l/activation	rect_fem_l/activation	vas_med_l/activation	vas_int_l/activation	vas_lat_l/activation	med_gas_l/activation	lat_gas_l/activation	soleus_l/activation	tib_post_l/activation	flex_dig_l/activation	flex_hal_l/activation	tib_ant_l/activation	per_brev_l/activation	per_long_l/activation	per_tert_l/activation	ext_dig_l/activation	ext_hal_l/activation	ercspn_l/activation	intobl_l/activation	extobl_l/activation	glut_med1_r/activation	glut_med2_r/activation	glut_med3_r/activation	glut_min1_r/activation	glut_min2_r/activation	glut_min3_r/activation	semimem_r/activation	semiten_r/activation	bifemlh_r/activation	bifemsh_r/activation	sar_r/activation	add_long_r/activation	add_brev_r/activation	add_mag1_r/activation	add_mag2_r/activation	add_mag3_r/activation	tfl_r/activation	pect_r/activation	grac_r/activation	glut_max1_r/activation	glut_max2_r/activation	glut_max3_r/activation	iliacus_r/activation	psoas_r/activation	quad_fem_r/activation	gem_r/activation	peri_r/activation	rect_fem_r/activation	vas_med_r/activation	vas_int_r/activation	vas_lat_r/activation	med_gas_r/activation	lat_gas_r/activation	soleus_r/activation	tib_post_r/activation	flex_dig_r/activation	flex_hal_r/activation	tib_ant_r/activation	per_brev_r/activation	per_long_r/activation	per_tert_r/activation	ext_dig_r/activation	ext_hal_r/activation	ercspn_r/activation	intobl_r/activation	extobl_r/activation	
          0.00000000	         -2.91505953	         -2.39625562	          3.64126172	          0.00000000	          0.93184278	         -0.00162338	        -11.05204712	          0.76872520	          7.09106757	         22.84762924	          5.29368764	          4.72970178	         -8.22924776	         -4.25426619	          1.97679104	         -0.73880939	          3.81388528	         -6.01646494	          2.90855652	         -0.24024287	         22.03904135	         22.01718573	         -0.51837157	          0.69297458	         -2.69030809	          3.45141910	        -13.45196846	         15.55439352	         -3.27043301	        -13.45717709	          7.67555553	         28.81091846	         15.69584990	         86.51662706	         86.51662706	          0.50263599	          0.18830188	          0.11461598	          0.28681537	          0.26778897	          0.17338655	          0.05000423	          0.05000199	          0.05000159	          0.05001349	          0.09393406	          0.05000276	          0.05000296	          0.05000446	          0.05001000	          0.05000274	          0.26570107	          0.05002725	          0.05001929	          0.05004751	          0.05001840	          0.05000663	          0.27353028	          0.36472141	          0.05007227	          0.05011232	          0.07032540	          0.11568088	          0.05000219	          0.05000227	          0.05000211	          0.26017980	          0.34144964	          0.31489630	          0.27538013	          0.19407758	          0.23072854	          0.05000065	          0.05000354	          0.05000185	          0.05000262	          0.05000090	          0.05000361	          0.05000022	          0.05000272	          0.05000069	          0.06176909	          0.05007652	          0.05000168	          0.06174785	          0.06174057	          0.05000747	          0.05000080	          0.05000120	          0.05004417	          0.05000096	          0.05000331	          0.11623587	          0.22356096	          0.13130035	          0.15490121	          0.10692410	          0.05000087	          0.05027215	          0.05000646	          0.05000255	          0.05000149	          0.11807807	          0.05000173	          0.05000111	          0.14132919	          0.05003443	          0.06265180	          0.09805133	          0.15062700	          0.15209933	          0.11816710	          0.05000011	          0.05000024	          0.05000007	          0.05000209	          0.05000941	          0.05000606	          0.40549874	          0.18114919	          0.15470424	          0.18245113	          0.37993043	          0.11087588	          0.05000036	          0.08837710	          0.11106384	
          0.01408905	         -2.92434849	         -2.41551169	          3.84315583	          0.01404477	          0.93095314	         -0.00125050	        -11.07367112	          0.64698890	          6.67681802	         21.82705301	          5.48334132	          5.05411023	         -9.73533822	         -3.75844647	          1.81377528	         -1.28489132	          4.52918165	         -6.22847410	          2.71661281	         -0.28863574	         23.33779856	         22.13449197	         -0.33746962	          0.82737730	         -2.83603711	          3.38682575	        -13.45167291	         15.99486664	         -4.31396544	        -13.46425721	          7.58918251	         30.42930160	         14.76468200	         86.51662706	         86.51662706	          0.45083437	          0.15249440	          0.09282074	          0.25223391	          0.21687116	          0.14041598	          0.05001028	          0.05000284	          0.05000171	          0.05000175	          0.07607491	          0.05000184	          0.05000227	          0.05000466	          0.05001338	          0.05001803	          0.21518000	          0.05000609	          0.05000392	          0.05003712	          0.05002315	          0.05001118	          0.22448994	          0.35188682	          0.05000127	          0.05000534	          0.05695296	          0.13945304	          0.05004557	          0.05004410	          0.05003265	          0.23592975	          0.31570211	          0.30415607	          0.26102995	          0.19110053	          0.23283214	          0.05000047	          0.05000535	          0.05386568	          0.05000202	          0.05000074	          0.05000274	          0.05000020	          0.05000902	          0.05860273	          0.05002392	          0.05000088	          0.05000257	          0.05000610	          0.05000145	          0.05000221	          0.05312520	          0.05239553	          0.05000267	          0.05000069	          0.05000158	          0.09413384	          0.18104947	          0.15517261	          0.15663125	          0.10369767	          0.05000653	          0.05106107	          0.07627906	          0.05009394	          0.06673395	          0.09562527	          0.05000064	          0.05000085	          0.11627708	          0.05000635	          0.05073807	          0.07940577	          0.12198781	          0.12317983	          0.09570087	          0.05296118	          0.05290395	          0.05670844	          0.05000133	          0.05000510	          0.05000522	          0.40814676	          0.22746790	          0.17132462	          0.14775841	          0.38894088	          0.08979188	          0.05000010	          0.09990515	          0.08994406	
          0.02817809	         -2.92886747	         -2.43406141	          4.01928895	          0.02843712	          0.93015361	         -0.00087108	        -11.04726919	          0.51583722	          6.27988293	         20.74256577	          5.60967300	          5.37536251	        -11.34742969	         -3.37448065	          1.53283885	         -1.84998461	          5.24335985	         -6.44985351	          2.45226475	         -0.29272526	         24.70795692	         22.31562051	         -0.13451939	          0.97255943	         -2.97014071	          3.22973156	        -13.44971491	         16.37878600	         -5.42848783	        -13.47179325	          7.59195983	         32.06824065	         13.96255788	         86.51662706	         86.51662706	          0.44547340	          0.12349650	          0.07524704	          0.28671515	          0.17724032	          0.11371759	          0.05000997	          0.05000251	          0.05000212	          0.05000301	          0.06175911	          0.05000194	          0.05000250	          0.05000450	          0.05001265	          0.05000679	          0.17720901	          0.05001118	          0.05000775	          0.05007808	          0.05004010	          0.05001233	          0.19513196	          0.33097646	          0.05000538	          0.05004277	          0.05364135	          0.18256887	          0.05001448	          0.05001601	          0.05002265	          0.20273321	          0.28294345	          0.28208202	          0.24170379	          0.18805598	          0.23233261	          0.05000096	          0.05000223	          0.06923327	          0.05000260	          0.05000103	          0.05000460	          0.05000024	          0.05000034	          0.05000033	          0.16972084	          0.13804381	          0.12704045	          0.09233462	          0.06296037	          0.05010819	          0.05002472	          0.05771136	          0.05007116	          0.05001521	          0.05000668	          0.07623346	          0.14662073	          0.12566567	          0.12684848	          0.09716213	          0.05000302	          0.05002682	          0.06177831	          0.09850657	          0.07901336	          0.07790083	          0.05000126	          0.05000119	          0.09416661	          0.05007270	          0.08432766	          0.06430607	          0.09879156	          0.09975698	          0.07750340	          0.05000052	          0.05000107	          0.05000028	          0.05000097	          0.05000596	          0.05000740	          0.46575251	          0.25529437	          0.17910228	          0.21495419	          0.40525775	          0.11913554	          0.05283107	          0.12204802	          0.07623912	
          0.04226714	         -2.93017588	         -2.44159974	          4.16118693	          0.04305170	          0.92953110	         -0.00046793	        -10.95747659	          0.38774653	          5.90913511	         19.64646794	          5.71354720	          5.68793509	        -13.06332112	         -2.99300449	          1.10038339	         -2.42653188	          5.94755079	         -6.67871701	          2.09535062	         -0.29445752	         26.13333466	         22.56310166	          0.07769627	          1.12107937	         -3.09761629	          3.00461052	        -13.45093575	         16.74634890	         -6.59171517	        -13.47493673	          7.61639756	         33.68714127	         13.31093391	         86.51662706	         86.51662706	          0.43157492	          0.10001234	          0.06093868	          0.24201289	          0.14353904	          0.09209391	          0.05000953	          0.05000175	          0.05000124	          0.05000147	          0.05004967	          0.05000206	          0.05000373	          0.05000566	          0.05001482	          0.05000962	          0.14352407	          0.05001147	          0.05000513	          0.05002833	          0.05001678	          0.05000935	          0.18263657	          0.31648095	          0.05000188	          0.05000823	          0.05000628	          0.16802074	          0.07390934	          0.06171529	          0.05005175	          0.16418106	          0.23351464	          0.24869160	          0.22242624	          0.18137329	          0.22608503	          0.05000053	          0.05105260	          0.08908083	          0.05000294	          0.05000085	          0.05000266	          0.05000016	          0.05000024	          0.05000028	          0.24728191	          0.19786632	          0.18884356	          0.07480110	          0.05339922	          0.07483246	          0.05000281	          0.05067544	          0.05000371	          0.05000118	          0.05000212	          0.06173728	          0.11873908	          0.10177042	          0.10273564	          0.09943006	          0.05000311	          0.05001429	          0.05003678	          0.13418547	          0.10150292	          0.08918836	          0.05000054	          0.05000059	          0.07626083	          0.05002096	          0.08799576	          0.05207918	          0.11657298	          0.11658403	          0.08930215	          0.05000025	          0.05000053	          0.05000015	          0.05000055	          0.05000420	          0.05000397	          0.51508016	          0.26169370	          0.16255269	          0.32489307	          0.42418605	          0.11840888	          0.05979048	          0.10862034	          0.06174149	
